<svg id="Layer_1" data-name="Layer 1" xmlns="http://www.w3.org/2000/svg" viewBox="0 0 443.33 318.67"><defs><style>.cls-1{fill:none;}</style></defs><title>logo</title><path class="cls-1" d="M124.67,41H443.33V359.67H124.67V41Z" transform="translate(0 -41)"/><path d="M167.33,258.72A20.38,20.38,0,1,0,147,238.34,20.44,20.44,0,0,0,167.33,258.72ZM228.48,167H218.29V146.62a51,51,0,0,0-101.91,0V167H106.19a20.44,20.44,0,0,0-20.38,20.38V289.29a20.44,20.44,0,0,0,20.38,20.38H228.48a20.44,20.44,0,0,0,20.38-20.38V187.38A20.44,20.44,0,0,0,228.48,167Zm-92.74-20.38a31.59,31.59,0,0,1,63.18,0V167H135.74V146.62Zm92.74,142.67H106.19V187.38H228.48V289.29Z" transform="translate(0 -41)"/><rect y="148.72" width="72.8" height="26.56"/><polygon points="400 162 293.78 268.22 275.06 249.5 349.15 175.28 262.33 175.28 262.33 148.72 349.15 148.72 275.06 74.5 293.78 55.78 400 162"/></svg>